<?xml version="1.0" encoding="UTF-8"?>
<!DOCTYPE svg PUBLIC "-//W3C//DTD SVG 1.1//EN" "http://www.w3.org/Graphics/SVG/1.1/DTD/svg11.dtd">
<svg version="1.1" xmlns="http://www.w3.org/2000/svg" xmlns:xlink="http://www.w3.org/1999/xlink" x="0" y="0" width="600" height="162" viewBox="0, 0, 600, 162">
  <defs>
    <clipPath id="Clip_1">
      <path d="M0,0.136 L600,0.136 L600,161.94 L0,161.94 z"/>
    </clipPath>
  </defs>
  <g id="Layer_1">
    <path d="M136.826,24.576 C174.292,27.537 205.802,41.359 221.358,60.319 L225.149,60.319 C209.079,39.161 174.611,23.819 133.712,21.289 C134.921,22.29 135.955,23.413 136.826,24.576" fill="#FFFFFE"/>
    <path d="M108.975,21.333 C68.432,24.016 34.317,39.301 18.353,60.319 L22.143,60.319 C37.599,41.483 68.8,27.711 105.946,24.63 C106.768,23.471 107.765,22.343 108.975,21.333" fill="#FFFFFE"/>
    <path d="M128.664,77.838 L132.548,77.838 L132.548,83.516 L128.664,83.516 z" fill="#FFFFFE"/>
    <path d="M117.921,77.838 L121.798,77.838 L121.798,83.516 L117.921,83.516 z" fill="#FFFFFE"/>
    <path d="M107.532,77.838 L111.409,77.838 L111.409,83.516 L107.532,83.516 z" fill="#FFFFFE"/>
    <path d="M97.363,77.838 L101.24,77.838 L101.24,83.516 L97.363,83.516 z" fill="#FFFFFE"/>
    <path d="M139.352,77.838 L143.235,77.838 L143.235,83.516 L139.352,83.516 z" fill="#FFFFFE"/>
    <path d="M150.095,77.838 L153.973,77.838 L153.973,83.516 L150.095,83.516 z" fill="#FFFFFE"/>
    <path d="M160.53,77.838 L164.414,77.838 L164.414,83.516 L160.53,83.516 z" fill="#FFFFFE"/>
    <path d="M119.779,55.349 C119.779,57.103 121.201,58.518 122.955,58.518 C124.701,58.518 126.125,57.103 126.125,55.349 C126.125,53.604 124.701,52.179 122.955,52.179 C121.201,52.179 119.779,53.604 119.779,55.349" fill="#FFFFFE"/>
    <path d="M128.664,87.526 L132.548,87.526 L132.548,93.201 L128.664,93.201 z" fill="#FFFFFE"/>
    <path d="M117.921,87.526 L121.798,87.526 L121.798,93.201 L117.921,93.201 z" fill="#FFFFFE"/>
    <path d="M107.532,87.526 L111.409,87.526 L111.409,93.201 L107.532,93.201 z" fill="#FFFFFE"/>
    <path d="M97.363,87.526 L101.24,87.526 L101.24,93.201 L97.363,93.201 z" fill="#FFFFFE"/>
    <path d="M139.352,87.526 L143.235,87.526 L143.235,93.201 L139.352,93.201 z" fill="#FFFFFE"/>
    <path d="M150.095,87.526 L153.973,87.526 L153.973,93.201 L150.095,93.201 z" fill="#FFFFFE"/>
    <path d="M160.53,87.526 L164.414,87.526 L164.414,93.201 L160.53,93.201 z" fill="#FFFFFE"/>
    <path d="M117.921,97.326 L121.798,97.326 L121.798,103.003 L117.921,103.003 z" fill="#FFFFFE"/>
    <path d="M107.532,97.326 L111.409,97.326 L111.409,103.003 L107.532,103.003 z" fill="#FFFFFE"/>
    <path d="M97.363,97.326 L101.24,97.326 L101.24,103.003 L97.363,103.003 z" fill="#FFFFFE"/>
    <path d="M139.352,97.326 L143.235,97.326 L143.235,103.003 L139.352,103.003 z" fill="#FFFFFE"/>
    <path d="M150.095,97.326 L153.973,97.326 L153.973,103.003 L150.095,103.003 z" fill="#FFFFFE"/>
    <path d="M160.53,97.326 L164.414,97.326 L164.414,103.003 L160.53,103.003 z" fill="#FFFFFE"/>
    <path d="M123.776,22.341 L121.724,0.136 L120.01,22.103 C116.139,22.712 113.137,25.915 112.833,29.872 L118.49,28.203 L125.469,28.203 L129.858,29.793 C129.552,26.252 127.082,23.322 123.776,22.341" fill="#FFFFFE"/>
    <path d="M35.935,90.437 L38.951,90.437 L38.951,95.247 L35.935,95.247 z" fill="#FFFFFE"/>
    <path d="M43.815,90.437 L46.831,90.437 L46.831,95.247 L43.815,95.247 z" fill="#FFFFFE"/>
    <path d="M51.516,90.437 L54.535,90.437 L54.535,95.247 L51.516,95.247 z" fill="#FFFFFE"/>
    <path d="M35.935,81.722 L38.951,81.722 L38.951,86.525 L35.935,86.525 z" fill="#FFFFFE"/>
    <path d="M43.815,81.722 L46.831,81.722 L46.831,86.525 L43.815,86.525 z" fill="#FFFFFE"/>
    <path d="M51.516,81.722 L54.535,81.722 L54.535,86.525 L51.516,86.525 z" fill="#FFFFFE"/>
    <path d="M35.935,99.243 L38.951,99.243 L38.951,104.046 L35.935,104.046 z" fill="#FFFFFE"/>
    <path d="M51.516,99.243 L54.535,99.243 L54.535,104.046 L51.516,104.046 z" fill="#FFFFFE"/>
    <path d="M43.536,76.614 L43.518,76.614 C43.518,76.614 43.53,76.694 43.536,76.614" fill="#FFFFFE"/>
    <path d="M46.931,76.331 C46.931,75.371 46.216,74.589 45.324,74.589 C44.437,74.589 43.715,75.371 43.715,76.331 C43.715,76.364 43.715,78.31 43.715,78.31 L46.939,78.31 L46.931,76.331" fill="#FFFFFE"/>
    <path d="M214.912,90.437 L217.928,90.437 L217.928,95.247 L214.912,95.247 z" fill="#FFFFFE"/>
    <path d="M222.791,90.437 L225.809,90.437 L225.809,95.247 L222.791,95.247 z" fill="#FFFFFE"/>
    <path d="M230.493,90.437 L233.51,90.437 L233.51,95.247 L230.493,95.247 z" fill="#FFFFFE"/>
    <path d="M214.912,81.722 L217.928,81.722 L217.928,86.525 L214.912,86.525 z" fill="#FFFFFE"/>
    <path d="M222.791,81.722 L225.809,81.722 L225.809,86.525 L222.791,86.525 z" fill="#FFFFFE"/>
    <path d="M230.493,81.722 L233.51,81.722 L233.51,86.525 L230.493,86.525 z" fill="#FFFFFE"/>
    <path d="M214.912,99.243 L217.928,99.243 L217.928,104.046 L214.912,104.046 z" fill="#FFFFFE"/>
    <path d="M230.493,99.243 L233.51,99.243 L233.51,104.046 L230.493,104.046 z" fill="#FFFFFE"/>
    <path d="M222.507,76.614 L222.493,76.614 C222.493,76.614 222.507,76.694 222.507,76.614" fill="#FFFFFE"/>
    <path d="M225.914,76.331 C225.914,75.371 225.187,74.589 224.299,74.589 C223.413,74.589 222.686,75.371 222.686,76.331 C222.686,76.364 222.692,78.31 222.692,78.31 L225.914,78.31 L225.914,76.331" fill="#FFFFFE"/>
    <path d="M104.223,125.081 C104.223,124.11 104.971,123.423 105.881,123.423 C106.71,123.423 107.579,123.907 107.579,124.918 C107.579,125.869 106.972,126.373 105.982,126.939 C105.113,126.555 104.223,126.151 104.223,125.081 z M107.862,131.225 C107.862,132.378 106.992,133.044 105.921,133.044 C104.93,133.044 104.102,132.296 104.102,131.285 C104.102,130.193 104.829,129.608 105.739,129.183 C106.689,129.467 107.862,129.971 107.862,131.225 z M137.272,133.044 C135.574,133.044 135.433,130.538 135.433,128.294 C135.433,126.05 135.574,123.543 137.272,123.543 C138.97,123.543 139.112,126.05 139.112,128.294 C139.112,130.538 138.97,133.044 137.272,133.044 z M169.088,130.114 L165.207,130.114 L169.048,124.15 L169.088,130.114 z M122.103,33.926 C121.275,33.926 120.607,34.595 120.607,35.42 C120.607,36.247 121.275,36.916 122.103,36.916 C122.928,36.916 123.604,36.247 123.604,35.42 C123.604,34.595 122.928,33.926 122.103,33.926 z M240.285,77.356 L234.786,77.362 L234.786,72.705 L229.573,72.705 L229.573,69.391 L219.079,69.391 L219.079,72.699 L213.891,72.699 L213.872,77.184 L209.01,77.184 L209.022,110.302 L221.938,110.302 L221.938,101.679 L226.536,101.679 L226.536,110.302 L239.624,110.302 L239.624,113.106 L223.247,113.106 C205.581,133.766 164.928,151.171 119.819,151.171 C74.721,151.171 37.906,133.789 20.429,113.106 L-0,113.106 L0.061,77.23 L5.051,77.205 L5.102,71.672 L10.845,71.672 L10.86,67.009 L54.177,67.009 L54.199,70.803 L59.416,70.832 L59.429,75.489 L61.329,75.491 L61.309,77.356 L55.812,77.362 L55.812,72.705 L50.596,72.705 L50.596,69.391 L40.111,69.391 L40.111,72.699 L34.916,72.699 L34.898,77.184 L30.032,77.184 L30.047,110.302 L42.954,110.302 L42.954,101.679 L47.561,101.679 L47.561,110.302 L67.152,110.302 L67.152,73.121 L65.905,71.911 L77.519,60.319 L109.848,60.367 L110.987,60.319 L110.987,49.627 L109.947,49.64 L109.947,48.541 L111.436,47.092 L113.123,47.092 L113.123,34.674 L111.554,34.315 L111.211,33.152 L116.563,31.643 L116.563,47.092 L119.58,47.052 L119.58,31.339 L124.537,31.339 L124.537,47.092 L127.553,47.092 L127.553,31.643 L131.206,33.152 L130.861,34.145 L129.381,34.502 L129.381,47.092 L130.61,47.092 L131.809,48.456 L131.847,49.627 L115.532,49.607 L115.532,63.812 L130.729,63.812 L130.716,60.371 L132.594,60.368 L136.73,60.319 L160.611,60.319 L172.222,71.911 L170.924,73.121 L90.15,73.121 L90.15,110.302 L127.128,110.302 L127.144,101.606 C127.144,100.184 128.547,99.024 130.267,99.024 C131.994,99.024 133.388,100.184 133.388,101.606 L133.388,110.302 L178.96,110.302 L178.884,77.23 L184.117,77.205 L184.071,71.672 L189.822,71.672 L189.828,67.009 L233.152,67.009 L233.181,70.832 L238.393,70.832 L238.398,75.46 L240.27,75.46 L240.285,77.356 z M100.827,125.06 C100.827,126.454 101.939,127.627 103.253,128.072 C101.736,128.537 100.463,129.507 100.463,131.569 C100.463,134.46 102.929,135.591 105.962,135.591 C108.913,135.591 111.5,134.399 111.5,131.367 C111.5,129.244 110.186,128.376 108.65,127.89 C109.883,127.384 110.975,126.353 110.975,124.615 C110.975,122.129 108.913,120.997 106.123,120.997 C103.334,120.997 100.827,122.049 100.827,125.06 z M74.166,135.349 L77.925,135.349 L77.925,121.239 L74.611,121.239 L69.82,124.352 L71.497,126.9 L74.166,124.999 L74.166,135.349 z M137.272,135.591 C141.942,135.591 142.75,131.953 142.75,128.294 C142.75,124.635 141.942,120.997 137.272,120.997 C132.603,120.997 131.794,124.635 131.794,128.294 C131.794,131.953 132.603,135.591 137.272,135.591 z M168.845,135.349 L172.363,135.349 L172.363,132.66 L174.364,132.66 L174.364,130.114 L172.363,130.114 L172.363,121.239 L168.198,121.239 L162.539,129.669 L162.539,132.66 L168.845,132.66 L168.845,135.349" fill="#FFFFFE"/>
    <path d="M471.991,155.068 C470.64,153.199 469.526,151.283 469.026,150.351 C467.371,147.178 467.617,147.39 464.267,146.896 L464.267,150.421 C464.267,155.216 464.056,156.838 469.733,157.261 L469.733,158.247 L454.962,158.247 L454.962,157.261 C459.156,156.556 459.615,156.802 459.615,150.421 L459.615,141.045 C459.615,136.286 459.367,135.615 454.962,135.263 L454.962,134.275 L465.924,134.275 C470.261,134.275 476.113,134.275 476.113,139.882 C476.113,142.666 473.998,144.711 471.529,145.662 L475.299,152.574 C478.088,157.269 483.116,160.49 488.978,160.696 C489.532,160.714 490.082,160.706 490.624,160.672 C488.389,161.451 485.95,161.762 483.441,161.498 C478.732,161.002 474.664,158.547 471.991,155.068 z M464.267,135.579 L464.267,145.662 C467.547,145.415 470.825,144.006 470.825,140.198 C470.825,136.567 467.441,135.579 464.267,135.579" fill="#FFFFFE"/>
    <g clip-path="url(#Clip_1)">
      <path d="M305.104,135.145 C308.419,135.814 310.11,135.603 310.215,139.375 L310.463,147.906 C310.604,152.278 309.723,156.508 303.906,156.508 C301.438,156.508 298.583,155.661 297.173,153.512 C296.045,151.749 296.151,148.964 296.151,146.919 L296.151,141.983 C296.151,137.188 295.939,135.568 300.804,135.145 L300.804,134.157 L286.844,134.157 L286.844,135.145 C291.039,135.85 291.497,135.603 291.497,141.983 L291.497,147.554 C291.497,150.515 291.145,153.933 293.612,156.154 C295.692,158.023 299.006,158.728 301.755,158.728 C304.681,158.728 307.89,157.988 309.97,155.802 C312.013,153.687 312.085,150.515 312.191,147.729 L312.437,142.442 C312.72,136.554 312.72,136.026 316.103,135.145 L317.577,135.133 L317.703,134.157 L305.104,134.157 L305.104,135.145" fill="#FFFFFE"/>
      <path d="M328.755,152.03 C328.755,156.789 326.992,156.649 324.419,157.142 L324.419,158.129 L335.981,158.129 L335.981,157.142 C331.822,156.261 331.047,155.979 330.905,151.642 C330.764,147.8 330.588,144.098 330.693,140.15 C336.511,146.426 349.942,161.971 349.942,161.971 L349.942,142.653 C349.942,136.908 350.118,135.426 353.22,135.145 L353.22,134.157 L342.503,134.157 L342.503,135.145 C346.663,135.709 347.721,136.237 347.791,140.432 L348.002,151.642 L347.932,151.713 C342.856,145.791 336.721,139.939 332.28,134.157 L324.172,134.157 L324.172,135.145 C328.649,135.92 328.755,138.458 328.755,142.09 L328.755,152.03" fill="#FFFFFE"/>
      <path d="M373.834,141.983 C373.834,135.603 374.292,135.85 378.487,135.145 L378.487,134.157 L364.528,134.157 L364.528,135.145 C368.723,135.85 369.181,135.603 369.181,141.983 L369.181,150.303 C369.181,156.684 368.723,156.437 364.528,157.142 L364.528,158.129 L378.487,158.129 L378.487,157.142 C374.292,156.437 373.834,156.684 373.834,150.303 L373.834,141.983" fill="#FFFFFE"/>
      <path d="M400.648,162 L408.181,143.5 C410.613,137.823 411.46,135.568 414.737,135.145 L414.737,134.157 L403.704,134.157 L403.704,135.145 C408.217,135.85 409.308,135.709 405.502,145.262 L402.435,152.947 L397.535,141.313 C395.314,136.097 395.525,136.097 399.579,135.145 L399.579,134.157 L387.065,134.157 L387.065,135.145 C389.815,136.062 389.92,135.85 391.648,139.763 L400.648,162" fill="#FFFFFE"/>
    </g>
    <path d="M434.368,146.742 C437.434,146.742 439.092,146.672 439.798,150.127 L440.784,150.127 C440.607,147.131 440.748,144.169 440.926,141.173 L440.009,141.173 C439.127,144.38 437.541,144.628 434.509,144.628 L431.513,144.628 L431.513,135.638 L434.086,135.638 C437.928,135.638 441.066,135.709 441.313,140.326 L442.405,140.326 L443.075,134.157 L422.206,134.157 L422.206,135.145 C426.401,135.85 426.859,135.603 426.859,141.983 L426.859,150.303 C426.859,156.684 426.401,156.437 422.206,157.142 L422.206,158.129 L443.569,158.129 C444.414,155.485 444.909,152.77 444.838,150.021 L443.78,150.021 C442.794,154.076 440.819,156.649 436.237,156.649 C431.548,156.649 431.513,154.992 431.513,151.396 L431.513,146.742 L434.368,146.742" fill="#FFFFFE"/>
    <path d="M525.951,141.983 C525.951,135.603 526.409,135.85 530.604,135.145 L530.604,134.157 L516.645,134.157 L516.645,135.145 C520.84,135.85 521.298,135.603 521.298,141.983 L521.298,150.303 C521.298,156.684 520.84,156.437 516.645,157.142 L516.645,158.129 L530.604,158.129 L530.604,157.142 C526.409,156.437 525.951,156.684 525.951,150.303 L525.951,141.983" fill="#FFFFFE"/>
    <path d="M540.917,141.138 C542.363,136.132 544.901,135.638 549.765,135.638 L549.765,150.303 C549.765,156.684 549.307,156.437 544.477,157.142 L544.477,158.129 L559.706,158.129 L559.706,157.142 C554.876,156.437 554.419,156.684 554.419,150.303 L554.419,135.638 C559.283,135.638 561.892,136.132 563.301,141.138 L564.289,140.962 L563.478,134.127 L540.741,134.127 L539.929,140.962 L540.917,141.138" fill="#FFFFFE"/>
    <path d="M584.829,147.941 L585.464,146.602 L589.483,139.164 C590.928,136.519 592.374,135.779 595.369,135.145 L595.369,134.157 L585.111,134.157 L585.111,135.145 C588.25,135.955 588.884,136.272 585.887,142.371 L583.984,146.249 L580.916,139.798 C578.872,135.498 580.036,135.779 582.502,135.145 L582.502,134.157 L570.269,134.157 L570.269,135.145 C574.183,135.955 574.641,137.472 576.229,140.679 L580.176,148.682 L580.176,150.303 C580.176,156.684 579.717,156.437 575.065,157.142 L575.065,158.129 L589.94,158.129 L589.94,157.142 C584.619,156.719 584.829,155.097 584.829,150.303 L584.829,147.941" fill="#FFFFFE"/>
    <path d="M497.426,158.728 C501.937,158.728 506.742,156.614 506.742,151.537 C506.742,144.169 495.143,144.557 495.143,138.846 C495.143,136.765 496.589,135.18 498.739,135.18 C502.37,135.18 503.216,138.388 503.886,141.278 L504.944,141.278 L505.26,135.145 C503.463,134.087 501.383,133.558 499.268,133.558 C494.967,133.558 490.49,136.167 490.49,140.855 C490.49,147.835 502.089,147.341 502.089,153.299 C502.089,155.59 500.361,157.107 498.034,157.107 C493.874,157.107 491.301,153.194 490.138,149.739 L489.044,149.951 L490.258,156.596 C492.271,157.96 494.826,158.673 497.426,158.728" fill="#FFFFFE"/>
    <path d="M561.495,40.016 C588.354,40.015 600,58.27 600,76.945 C600,99.503 583.633,113.877 561.602,113.877 C539.464,113.877 523.202,99.503 523.202,76.841 C523.201,54.494 539.567,40.016 561.495,40.016 z M560.702,44.342 C543.606,44.342 536.748,61.042 536.748,74.46 C536.749,89.867 544.898,109.547 562.79,109.547 C579.192,109.547 586.447,92.849 586.447,78.635 C586.148,61.042 575.911,44.342 560.702,44.342" fill="#FFFFFE"/>
    <path d="M320.483,40.016 C347.341,40.016 358.987,58.271 358.987,76.946 C358.987,99.503 342.62,113.877 320.588,113.877 C298.451,113.877 282.189,99.503 282.189,76.841 C282.188,54.494 298.556,40.016 320.483,40.016 z M319.69,44.342 C302.594,44.343 295.735,61.042 295.736,74.461 C295.736,89.867 303.886,109.547 321.778,109.547 C338.178,109.547 345.434,92.849 345.434,78.635 C345.136,61.042 334.898,44.342 319.69,44.342" fill="#FFFFFE"/>
    <path d="M496.966,58.436 C497.282,47.602 497.386,44.447 510.007,42.764 L510.007,41.187 L474.668,41.187 L474.668,42.764 C487.289,44.447 487.394,47.602 487.709,58.436 L487.709,95.459 C487.394,106.292 487.289,109.447 474.668,111.129 L474.668,112.708 L510.007,112.708 L510.007,111.129 C497.386,109.447 497.282,106.292 496.966,95.459 L496.966,58.436" fill="#FFFFFE"/>
    <path d="M394.662,58.436 L394.662,70.068 L436.491,70.068 L436.491,58.436 C436.175,47.602 436.07,44.447 423.448,42.764 L423.448,41.187 L458.789,41.187 L458.789,42.764 C446.167,44.447 446.061,47.602 445.746,58.436 L445.746,95.459 C446.061,106.292 446.167,109.447 458.789,111.129 L458.789,112.708 L423.448,112.708 L423.448,111.129 C436.07,109.447 436.175,106.292 436.491,95.459 L436.491,76.653 L394.662,76.653 L394.662,95.459 C394.978,106.292 395.083,109.447 407.705,111.129 L407.705,112.708 L372.364,112.708 L372.364,111.129 C384.986,109.447 385.092,106.292 385.407,95.459 L385.407,58.436 C385.092,47.602 384.986,44.447 372.364,42.764 L372.364,41.187 L407.705,41.187 L407.705,42.764 C395.083,44.447 394.978,47.602 394.662,58.436" fill="#FFFFFE"/>
  </g>
</svg>
